<svg width="125" height="87" viewBox="0 0 125 87" fill="none" xmlns="http://www.w3.org/2000/svg">
<g id="Frame" clip-path="url(#clip0_40_171)">
<path id="Vector" d="M35.8318 41.3052C35.8318 39.7887 36.2958 38.5459 37.2237 37.5981C38.1517 36.6502 39.396 36.1658 40.9566 36.1658C42.4751 36.1658 43.7194 36.6502 44.6685 37.5981C45.6175 38.5459 46.1026 39.7887 46.1026 41.3052C46.1026 42.8218 45.6175 44.0645 44.6685 45.0124C43.7194 45.9602 42.4751 46.4447 40.9566 46.4447C39.396 46.4447 38.1517 45.9813 37.2237 45.0124C36.2958 44.0645 35.8318 42.8218 35.8318 41.3052ZM36.3379 86.2123V50.6363H45.6808V86.2123H36.3379Z" fill="#026293"/>
<path id="Vector_2" d="M74.6162 69.9725L78.2226 59.9042C79.1927 57.0818 80.2683 54.0697 81.4494 50.8891C82.6304 47.7086 83.706 44.7176 84.6761 41.9372H94.4408L78.5179 86.2545H70.7146L54.8339 41.9372H64.5985L74.6162 69.9725Z" fill="#666666"/>
<path id="Vector_3" d="M105.344 54.5963V74.101C105.344 75.6597 105.871 76.8182 106.905 77.5765C107.938 78.3347 109.161 78.7139 110.553 78.7139C112.114 78.7139 113.379 78.4611 114.328 77.9135C115.278 77.3869 116.058 76.6918 116.648 75.8493V54.5753H125.021V86.2335H116.838V85.3489C114.898 86.1914 112.515 86.6127 109.668 86.6127C107.896 86.6127 106.23 86.3599 104.69 85.8544C103.151 85.3489 101.801 84.5906 100.662 83.6006C99.5233 82.6106 98.6165 81.3889 97.9627 79.9356C97.3089 78.4822 96.9714 76.7761 96.9714 74.8382V54.5753H105.344V54.5963Z" fill="#666666"/>
<g id="Group">
<g id="Group_2">
<path id="Vector_4" d="M6.07481 46.3168C4.30326 42.6728 2.51061 39.0499 0.760149 35.406C-0.927046 31.8884 0.2329 28.5393 3.71274 26.8121C6.39116 25.4851 9.06958 24.1581 11.7691 22.8943C14.0257 21.8412 14.9748 20.135 14.7639 17.6917C14.6584 16.4489 14.5741 15.1851 14.6373 13.9635C14.7428 12.0467 15.7129 10.6354 17.4845 9.77185C23.3264 6.92829 29.1894 4.08473 35.0313 1.22011C37.2879 0.103754 39.3126 0.419705 41.1896 2.02052C41.991 2.71561 42.7713 3.43177 43.5727 4.12686C45.1967 5.51704 46.9893 5.7698 48.9296 4.82195C51.6923 3.45283 54.4762 2.10478 57.239 0.777782C60.7821 -0.907288 64.1143 0.209071 65.8437 3.74772C68.2901 8.7608 70.6733 13.795 73.0986 18.8291C74.2164 21.125 75.4396 23.3577 76.5363 25.6536C78.2235 29.1923 77.0635 32.4992 73.5837 34.2264C71.4747 35.2796 69.3446 36.2906 67.2145 37.3438C66.1811 37.8493 65.1899 37.9968 64.283 37.1332C63.3762 36.2906 63.4605 35.3217 63.798 34.2264C64.7259 31.2986 65.6117 28.3497 66.4131 25.3798C67.0458 23.0418 66.0546 20.788 63.8402 19.7559C57.471 16.7228 50.8277 14.5743 43.6782 14.3215C33.7026 13.9424 26.3844 18.3446 21.2807 26.7068C18.1172 31.8884 16.0925 37.5544 14.806 43.4522C14.1733 46.3379 15.0169 48.0861 17.7165 49.3078C20.3949 50.5084 23.1577 51.5195 25.8994 52.5305C27.0171 52.9518 27.9451 53.4152 28.0505 54.7211C28.1771 56.027 27.4178 56.7221 26.3212 57.2487C24.1489 58.2597 21.9977 59.3761 19.8255 60.4082C16.6409 61.9248 13.1821 60.7663 11.6004 57.6068C9.72337 53.8575 7.90964 50.0872 6.07481 46.3168Z" fill="#89C540"/>
</g>
<path id="Vector_5" d="M42.7071 22.3693C35.7474 20.9581 28.9776 25.4446 27.5645 32.3744C26.1515 39.3253 30.6437 46.0867 37.5823 47.4979C44.5208 48.9092 51.3118 44.4227 52.7248 37.4928C54.1379 30.563 49.6457 23.8016 42.7071 22.3693ZM41.3995 35.5129C40.6192 35.3444 40.113 34.5861 40.2607 33.8067C40.4083 33.0274 41.1886 32.5219 41.969 32.6693C42.7493 32.8378 43.2554 33.5961 43.1078 34.3754C42.9391 35.1759 42.1799 35.6814 41.3995 35.5129ZM45.5121 34.0384C43.9514 33.7225 42.918 32.1849 43.2554 30.6262C43.5718 29.0675 45.1114 28.0354 46.672 28.3724C48.2327 28.6883 49.2661 30.226 48.9286 31.7846C48.6123 33.3433 47.0727 34.3544 45.5121 34.0384Z" fill="#026293"/>
</g>
</g>
<defs>
<clipPath id="clip0_40_171">
<rect width="125" height="86.6337" fill="white"/>
</clipPath>
</defs>
</svg>
